solid OpenSCAD_Model
  facet normal -0.994255 0.107033 0
    outer loop
      vertex -49.3834 -49.5255 0
      vertex -49.3834 -49.5255 8
      vertex -49.2596 -48.3754 0
    endloop
  endfacet
  facet normal -0.994255 0.107033 0
    outer loop
      vertex -49.2596 -48.3754 0
      vertex -49.3834 -49.5255 8
      vertex -49.2596 -48.3754 8
    endloop
  endfacet
  facet normal 0.707107 -0.707107 0
    outer loop
      vertex -49.3834 -49.5255 8
      vertex -49.3834 -49.5255 0
      vertex -37.7432 -37.8854 0
    endloop
  endfacet
  facet normal 0.707107 -0.707107 0
    outer loop
      vertex -37.7432 -37.8854 8
      vertex -49.3834 -49.5255 8
      vertex -37.7432 -37.8854 0
    endloop
  endfacet
  facet normal 0 0 -1
    outer loop
      vertex -49.3834 -49.5255 0
      vertex -49.2596 -48.3754 0
      vertex -37.7432 -37.8854 0
    endloop
  endfacet
  facet normal 0 0 -1
    outer loop
      vertex -37.7432 -37.8854 0
      vertex -49.2596 -48.3754 0
      vertex -48.7736 -45.7838 0
    endloop
  endfacet
  facet normal 0 0 -1
    outer loop
      vertex -37.7432 -37.8854 0
      vertex -48.7736 -45.7838 0
      vertex -48.0654 -43.0414 0
    endloop
  endfacet
  facet normal 0 0 -1
    outer loop
      vertex -37.7432 -37.8854 0
      vertex -48.0654 -43.0414 0
      vertex -47.1376 -40.159 0
    endloop
  endfacet
  facet normal 0 0 -1
    outer loop
      vertex -37.7432 -37.8854 0
      vertex -47.1376 -40.159 0
      vertex -45.9939 -37.148 0
    endloop
  endfacet
  facet normal 0 0 -1
    outer loop
      vertex -37.7432 -37.8854 0
      vertex -45.9939 -37.148 0
      vertex -44.6388 -34.0202 0
    endloop
  endfacet
  facet normal 0 0 -1
    outer loop
      vertex -37.7432 -37.8854 0
      vertex -44.6388 -34.0202 0
      vertex -43.0777 -30.7881 0
    endloop
  endfacet
  facet normal 0 0 -1
    outer loop
      vertex -37.7432 -37.8854 0
      vertex -43.0777 -30.7881 0
      vertex -41.3167 -27.4642 0
    endloop
  endfacet
  facet normal 0 0 -1
    outer loop
      vertex -37.7432 -37.8854 0
      vertex -41.3167 -27.4642 0
      vertex -39.3628 -24.0619 0
    endloop
  endfacet
  facet normal 0 -0 -1
    outer loop
      vertex -37.7432 -37.8854 0
      vertex -39.3628 -24.0619 0
      vertex -37.2237 -20.5945 0
    endloop
  endfacet
  facet normal 0 0 -1
    outer loop
      vertex -37.7432 -37.8854 0
      vertex -37.2237 -20.5945 0
      vertex -37.1783 -20.5256 0
    endloop
  endfacet
  facet normal -0 -0 -1
    outer loop
      vertex -37.4386 -20.2042 0
      vertex -38.4826 -18.1553 0
      vertex -37.1783 -20.5256 0
    endloop
  endfacet
  facet normal -0 -0 -1
    outer loop
      vertex -38.4826 -18.1553 0
      vertex -39.0778 -15.934 0
      vertex -37.1783 -20.5256 0
    endloop
  endfacet
  facet normal -0 -0 -1
    outer loop
      vertex -39.0778 -15.934 0
      vertex -39.1981 -13.6375 0
      vertex -37.1783 -20.5256 0
    endloop
  endfacet
  facet normal -0 0 -1
    outer loop
      vertex -39.1981 -13.6375 0
      vertex -38.8384 -11.3662 0
      vertex -37.1783 -20.5256 0
    endloop
  endfacet
  facet normal 0 0 -1
    outer loop
      vertex -37.1783 -20.5256 0
      vertex -38.8384 -11.3662 0
      vertex -38.25 -9.8333 0
    endloop
  endfacet
  facet normal 0 -0 -1
    outer loop
      vertex -37.1783 -20.5256 0
      vertex -38.25 -9.8333 0
      vertex -33.163 -14.9203 0
    endloop
  endfacet
  facet normal -0 0 -1
    outer loop
      vertex -37.1783 -20.5256 0
      vertex -33.163 -14.9203 0
      vertex -37.7432 -37.8854 0
    endloop
  endfacet
  facet normal 0 0 -1
    outer loop
      vertex -37.7432 -37.8854 0
      vertex -33.163 -14.9203 0
      vertex -33.0808 -14.8381 0
    endloop
  endfacet
  facet normal 0 0 -1
    outer loop
      vertex -37.7432 -37.8854 0
      vertex -33.0808 -14.8381 0
      vertex -32.4039 -15.515 0
    endloop
  endfacet
  facet normal 0 0 -1
    outer loop
      vertex -37.7432 -37.8854 0
      vertex -32.4039 -15.515 0
      vertex -30.576 -16.0846 0
    endloop
  endfacet
  facet normal -0 0 -1
    outer loop
      vertex -30.576 -16.0846 0
      vertex -28.6929 -15.7395 0
      vertex -37.7432 -37.8854 0
    endloop
  endfacet
  facet normal -0 0 -1
    outer loop
      vertex -28.6929 -15.7395 0
      vertex -27.1858 -14.5588 0
      vertex -37.7432 -37.8854 0
    endloop
  endfacet
  facet normal -0 0 -1
    outer loop
      vertex -27.1858 -14.5588 0
      vertex -10.5355 10.5355 0
      vertex -37.7432 -37.8854 0
    endloop
  endfacet
  facet normal 0 0 -1
    outer loop
      vertex -27.5061 -9.26346 0
      vertex -32.5931 -4.17644 0
      vertex -31.0602 -3.58802 0
    endloop
  endfacet
  facet normal 0 0 -1
    outer loop
      vertex -27.5061 -9.26346 0
      vertex -31.0602 -3.58802 0
      vertex -28.7889 -3.22828 0
    endloop
  endfacet
  facet normal -0 -0 -1
    outer loop
      vertex -27.5061 -9.26346 0
      vertex -28.7889 -3.22828 0
      vertex -26.5156 -10.9019 0
    endloop
  endfacet
  facet normal 0 -0 -1
    outer loop
      vertex -26.5156 -10.9019 0
      vertex -28.7889 -3.22828 0
      vertex -26.4924 -3.34863 0
    endloop
  endfacet
  facet normal -0 0 -1
    outer loop
      vertex -26.5156 -10.9019 0
      vertex -26.4924 -3.34863 0
      vertex -26.4 -12.8129 0
    endloop
  endfacet
  facet normal 0 -0 -1
    outer loop
      vertex -26.4 -12.8129 0
      vertex -26.4924 -3.34863 0
      vertex -24.2712 -3.94382 0
    endloop
  endfacet
  facet normal 0 0 -1
    outer loop
      vertex -26.4 -12.8129 0
      vertex -24.2712 -3.94382 0
      vertex -24.1154 -4.02319 0
    endloop
  endfacet
  facet normal 0 0 -1
    outer loop
      vertex -26.4 -12.8129 0
      vertex -24.1154 -4.02319 0
      vertex -23.4368 -3.20294 0
    endloop
  endfacet
  facet normal -0 0 -1
    outer loop
      vertex -26.4 -12.8129 0
      vertex -10.5355 10.5355 0
      vertex -27.1858 -14.5588 0
    endloop
  endfacet
  facet normal -0 0 -1
    outer loop
      vertex -23.4368 -3.20294 0
      vertex -10.5355 10.5355 0
      vertex -26.4 -12.8129 0
    endloop
  endfacet
  facet normal -0 0 -1
    outer loop
      vertex -10.5355 10.5355 0
      vertex 3.20294 23.4368 0
      vertex -37.7432 -37.8854 0
    endloop
  endfacet
  facet normal 0 0 -1
    outer loop
      vertex -37.7432 -37.8854 0
      vertex 3.20294 23.4368 0
      vertex 4.02319 24.1154 0
    endloop
  endfacet
  facet normal 0 0 -1
    outer loop
      vertex 4.02319 24.1154 0
      vertex 3.94382 24.2712 0
      vertex 3.34863 26.4924 0
    endloop
  endfacet
  facet normal 0 0 -1
    outer loop
      vertex 4.02319 24.1154 0
      vertex 3.34863 26.4924 0
      vertex 3.22828 28.7889 0
    endloop
  endfacet
  facet normal 0 0 -1
    outer loop
      vertex 4.02319 24.1154 0
      vertex 3.22828 28.7889 0
      vertex 3.58802 31.0602 0
    endloop
  endfacet
  facet normal 0 -0 -1
    outer loop
      vertex 4.02319 24.1154 0
      vertex 3.58802 31.0602 0
      vertex 4.17644 32.5931 0
    endloop
  endfacet
  facet normal 0 0 -1
    outer loop
      vertex 4.02319 24.1154 0
      vertex 4.17644 32.5931 0
      vertex 9.26346 27.5061 0
    endloop
  endfacet
  facet normal -0 0 -1
    outer loop
      vertex 4.02319 24.1154 0
      vertex 9.26346 27.5061 0
      vertex -37.7432 -37.8854 0
    endloop
  endfacet
  facet normal -0 0 -1
    outer loop
      vertex 9.26346 27.5061 0
      vertex 9.34565 27.5883 0
      vertex -37.7432 -37.8854 0
    endloop
  endfacet
  facet normal 0 0 -1
    outer loop
      vertex -27.5485 -23.8535 0
      vertex 9.34565 27.5883 0
      vertex 10.0225 26.9114 0
    endloop
  endfacet
  facet normal 0 0 -1
    outer loop
      vertex -27.5485 -23.8535 0
      vertex 10.0225 26.9114 0
      vertex 11.8504 26.3418 0
    endloop
  endfacet
  facet normal 0 0 -1
    outer loop
      vertex -27.5485 -23.8535 0
      vertex 11.8504 26.3418 0
      vertex -15.9357 -9.81606 0
    endloop
  endfacet
  facet normal 0 0 -1
    outer loop
      vertex 14.9203 33.163 0
      vertex 9.8333 38.25 0
      vertex 11.3662 38.8384 0
    endloop
  endfacet
  facet normal 0 0 -1
    outer loop
      vertex 14.9203 33.163 0
      vertex 11.3662 38.8384 0
      vertex 13.6375 39.1981 0
    endloop
  endfacet
  facet normal -0 -0 -1
    outer loop
      vertex 14.9203 33.163 0
      vertex 13.6375 39.1981 0
      vertex 15.9108 31.5245 0
    endloop
  endfacet
  facet normal 0 -0 -1
    outer loop
      vertex 15.9108 31.5245 0
      vertex 13.6375 39.1981 0
      vertex 15.934 39.0778 0
    endloop
  endfacet
  facet normal -0 0 -1
    outer loop
      vertex 15.9108 31.5245 0
      vertex 15.934 39.0778 0
      vertex 16.0264 29.6135 0
    endloop
  endfacet
  facet normal 0 -0 -1
    outer loop
      vertex 16.0264 29.6135 0
      vertex 15.934 39.0778 0
      vertex 18.1553 38.4826 0
    endloop
  endfacet
  facet normal 0 0 -1
    outer loop
      vertex 16.0264 29.6135 0
      vertex 18.1553 38.4826 0
      vertex 20.2042 37.4386 0
    endloop
  endfacet
  facet normal -0 0 -1
    outer loop
      vertex 16.0264 29.6135 0
      vertex 20.2042 37.4386 0
      vertex 15.2406 27.8676 0
    endloop
  endfacet
  facet normal 0 0 -1
    outer loop
      vertex 15.2406 27.8676 0
      vertex 20.2042 37.4386 0
      vertex 20.5256 37.1783 0
    endloop
  endfacet
  facet normal 0 0 -1
    outer loop
      vertex 15.2406 27.8676 0
      vertex 20.5256 37.1783 0
      vertex 20.5945 37.2237 0
    endloop
  endfacet
  facet normal 0 0 -1
    outer loop
      vertex 15.2406 27.8676 0
      vertex 20.5945 37.2237 0
      vertex 24.0619 39.3628 0
    endloop
  endfacet
  facet normal -0 0 -1
    outer loop
      vertex 24.0619 39.3628 0
      vertex 27.4642 41.3167 0
      vertex 15.2406 27.8676 0
    endloop
  endfacet
  facet normal 0 0 -1
    outer loop
      vertex -3.46447 3.46447 0
      vertex 27.4642 41.3167 0
      vertex 30.7881 43.0777 0
    endloop
  endfacet
  facet normal 0 0 -1
    outer loop
      vertex -15.9357 -9.81606 0
      vertex 15.2406 27.8676 0
      vertex 27.4642 41.3167 0
    endloop
  endfacet
  facet normal 0 0 -1
    outer loop
      vertex 9.81606 15.9357 0
      vertex 34.0202 44.6388 0
      vertex 37.148 45.9939 0
    endloop
  endfacet
  facet normal 0 0 -1
    outer loop
      vertex -3.46447 3.46447 0
      vertex 34.0202 44.6388 0
      vertex 9.81606 15.9357 0
    endloop
  endfacet
  facet normal 0 0 -1
    outer loop
      vertex 23.8535 27.5485 0
      vertex 43.0414 48.0654 0
      vertex 45.7838 48.7736 0
    endloop
  endfacet
  facet normal 0 0 -1
    outer loop
      vertex 9.81606 15.9357 0
      vertex 40.159 47.1376 0
      vertex 43.0414 48.0654 0
    endloop
  endfacet
  facet normal 0 0 -1
    outer loop
      vertex 37.8854 37.7432 0
      vertex 48.3754 49.2596 0
      vertex 49.5255 49.3834 0
    endloop
  endfacet
  facet normal 0 0 -1
    outer loop
      vertex 9.81606 15.9357 0
      vertex 43.0414 48.0654 0
      vertex 23.8535 27.5485 0
    endloop
  endfacet
  facet normal 0 0 -1
    outer loop
      vertex 9.81606 15.9357 0
      vertex 37.148 45.9939 0
      vertex 40.159 47.1376 0
    endloop
  endfacet
  facet normal 0 0 -1
    outer loop
      vertex -15.9357 -9.81606 0
      vertex 27.4642 41.3167 0
      vertex -3.46447 3.46447 0
    endloop
  endfacet
  facet normal 0 0 -1
    outer loop
      vertex -3.46447 3.46447 0
      vertex 30.7881 43.0777 0
      vertex 34.0202 44.6388 0
    endloop
  endfacet
  facet normal 0 0 -1
    outer loop
      vertex -15.9357 -9.81606 0
      vertex 13.7335 26.6869 0
      vertex 15.2406 27.8676 0
    endloop
  endfacet
  facet normal -0 0 -1
    outer loop
      vertex 11.8504 26.3418 0
      vertex 13.7335 26.6869 0
      vertex -15.9357 -9.81606 0
    endloop
  endfacet
  facet normal 0 0 -1
    outer loop
      vertex -37.7432 -37.8854 0
      vertex 9.34565 27.5883 0
      vertex -27.5485 -23.8535 0
    endloop
  endfacet
  facet normal 0 0 -1
    outer loop
      vertex 23.8535 27.5485 0
      vertex 45.7838 48.7736 0
      vertex 48.3754 49.2596 0
    endloop
  endfacet
  facet normal 0 0 -1
    outer loop
      vertex 23.8535 27.5485 0
      vertex 48.3754 49.2596 0
      vertex 37.8854 37.7432 0
    endloop
  endfacet
  facet normal -0.982872 0.184287 0
    outer loop
      vertex -49.2596 -48.3754 0
      vertex -49.2596 -48.3754 8
      vertex -48.7736 -45.7838 0
    endloop
  endfacet
  facet normal -0.982872 0.184287 0
    outer loop
      vertex -48.7736 -45.7838 0
      vertex -49.2596 -48.3754 8
      vertex -48.7736 -45.7838 8
    endloop
  endfacet
  facet normal 0 -0 1
    outer loop
      vertex -49.2596 -48.3754 8
      vertex -49.3834 -49.5255 8
      vertex -37.7432 -37.8854 8
    endloop
  endfacet
  facet normal 0 0 1
    outer loop
      vertex -15.9357 -9.81606 8
      vertex -49.2596 -48.3754 8
      vertex -27.5485 -23.8535 8
    endloop
  endfacet
  facet normal 0 0 1
    outer loop
      vertex -27.5485 -23.8535 8
      vertex -49.2596 -48.3754 8
      vertex -37.7432 -37.8854 8
    endloop
  endfacet
  facet normal 0 0 1
    outer loop
      vertex 27.4642 41.3167 8
      vertex -49.2596 -48.3754 8
      vertex -15.9357 -9.81606 8
    endloop
  endfacet
  facet normal 0 0 1
    outer loop
      vertex 34.0202 44.6388 8
      vertex -15.9357 -9.81606 8
      vertex -3.46447 3.46447 8
    endloop
  endfacet
  facet normal 0 0 1
    outer loop
      vertex 43.0414 48.0654 8
      vertex -3.46447 3.46447 8
      vertex 9.81606 15.9357 8
    endloop
  endfacet
  facet normal 0 0 1
    outer loop
      vertex 49.5255 49.3834 8
      vertex 9.81606 15.9357 8
      vertex 23.8535 27.5485 8
    endloop
  endfacet
  facet normal 0 0 1
    outer loop
      vertex 49.5255 49.3834 8
      vertex 23.8535 27.5485 8
      vertex 37.8854 37.7432 8
    endloop
  endfacet
  facet normal 0 -0 1
    outer loop
      vertex 48.3754 49.2596 8
      vertex 9.81606 15.9357 8
      vertex 49.5255 49.3834 8
    endloop
  endfacet
  facet normal 0 -0 1
    outer loop
      vertex 45.7838 48.7736 8
      vertex 9.81606 15.9357 8
      vertex 48.3754 49.2596 8
    endloop
  endfacet
  facet normal 0 -0 1
    outer loop
      vertex 43.0414 48.0654 8
      vertex 9.81606 15.9357 8
      vertex 45.7838 48.7736 8
    endloop
  endfacet
  facet normal 0 -0 1
    outer loop
      vertex 40.159 47.1376 8
      vertex -3.46447 3.46447 8
      vertex 43.0414 48.0654 8
    endloop
  endfacet
  facet normal 0 -0 1
    outer loop
      vertex 37.148 45.9939 8
      vertex -3.46447 3.46447 8
      vertex 40.159 47.1376 8
    endloop
  endfacet
  facet normal 0 -0 1
    outer loop
      vertex 34.0202 44.6388 8
      vertex -3.46447 3.46447 8
      vertex 37.148 45.9939 8
    endloop
  endfacet
  facet normal 0 -0 1
    outer loop
      vertex 30.7881 43.0777 8
      vertex -15.9357 -9.81606 8
      vertex 34.0202 44.6388 8
    endloop
  endfacet
  facet normal 0 -0 1
    outer loop
      vertex 27.4642 41.3167 8
      vertex -15.9357 -9.81606 8
      vertex 30.7881 43.0777 8
    endloop
  endfacet
  facet normal 0 -0 1
    outer loop
      vertex 15.2406 27.8676 8
      vertex -49.2596 -48.3754 8
      vertex 27.4642 41.3167 8
    endloop
  endfacet
  facet normal 0 0 1
    outer loop
      vertex 13.7335 26.6869 8
      vertex 11.8504 26.3418 8
      vertex -49.2596 -48.3754 8
    endloop
  endfacet
  facet normal 0 0 1
    outer loop
      vertex 9.26346 27.5061 8
      vertex 3.34863 26.4924 8
      vertex 3.94382 24.2712 8
    endloop
  endfacet
  facet normal 0 0 1
    outer loop
      vertex -33.163 -14.9203 8
      vertex -37.4386 -20.2042 8
      vertex -37.1783 -20.5256 8
    endloop
  endfacet
  facet normal -0 0 1
    outer loop
      vertex 10.0225 26.9114 8
      vertex 9.34565 27.5883 8
      vertex -49.2596 -48.3754 8
    endloop
  endfacet
  facet normal 0 0 1
    outer loop
      vertex 15.9108 31.5245 8
      vertex 16.0264 29.6135 8
      vertex 24.0619 39.3628 8
    endloop
  endfacet
  facet normal 0 0 1
    outer loop
      vertex -32.5931 -4.17644 8
      vertex -28.7889 -3.22828 8
      vertex -31.0602 -3.58802 8
    endloop
  endfacet
  facet normal 0 -0 1
    outer loop
      vertex 18.1553 38.4826 8
      vertex 14.9203 33.163 8
      vertex 20.2042 37.4386 8
    endloop
  endfacet
  facet normal 0 -0 1
    outer loop
      vertex 20.2042 37.4386 8
      vertex 15.9108 31.5245 8
      vertex 20.5256 37.1783 8
    endloop
  endfacet
  facet normal 0 -0 1
    outer loop
      vertex 24.0619 39.3628 8
      vertex 16.0264 29.6135 8
      vertex 27.4642 41.3167 8
    endloop
  endfacet
  facet normal 0 -0 1
    outer loop
      vertex 16.0264 29.6135 8
      vertex 15.2406 27.8676 8
      vertex 27.4642 41.3167 8
    endloop
  endfacet
  facet normal 0 -0 1
    outer loop
      vertex 13.7335 26.6869 8
      vertex -49.2596 -48.3754 8
      vertex 15.2406 27.8676 8
    endloop
  endfacet
  facet normal -0 0 1
    outer loop
      vertex 11.8504 26.3418 8
      vertex 10.0225 26.9114 8
      vertex -49.2596 -48.3754 8
    endloop
  endfacet
  facet normal 0 0 1
    outer loop
      vertex 9.26346 27.5061 8
      vertex 3.94382 24.2712 8
      vertex 4.02319 24.1154 8
    endloop
  endfacet
  facet normal 0 0 1
    outer loop
      vertex 14.9203 33.163 8
      vertex 15.9108 31.5245 8
      vertex 20.2042 37.4386 8
    endloop
  endfacet
  facet normal 0 -0 1
    outer loop
      vertex 9.26346 27.5061 8
      vertex -49.2596 -48.3754 8
      vertex 9.34565 27.5883 8
    endloop
  endfacet
  facet normal 0 0 1
    outer loop
      vertex 15.9108 31.5245 8
      vertex 20.5945 37.2237 8
      vertex 20.5256 37.1783 8
    endloop
  endfacet
  facet normal 0 0 1
    outer loop
      vertex 15.9108 31.5245 8
      vertex 24.0619 39.3628 8
      vertex 20.5945 37.2237 8
    endloop
  endfacet
  facet normal -0 0 1
    outer loop
      vertex -32.4039 -15.515 8
      vertex -33.0808 -14.8381 8
      vertex -49.2596 -48.3754 8
    endloop
  endfacet
  facet normal 0 0 1
    outer loop
      vertex 4.02319 24.1154 8
      vertex 3.20294 23.4368 8
      vertex -49.2596 -48.3754 8
    endloop
  endfacet
  facet normal 0 0 1
    outer loop
      vertex -33.163 -14.9203 8
      vertex -37.1783 -20.5256 8
      vertex -49.2596 -48.3754 8
    endloop
  endfacet
  facet normal 0 0 1
    outer loop
      vertex -32.5931 -4.17644 8
      vertex -26.4924 -3.34863 8
      vertex -28.7889 -3.22828 8
    endloop
  endfacet
  facet normal 0 0 1
    outer loop
      vertex -32.5931 -4.17644 8
      vertex -27.5061 -9.26346 8
      vertex -26.4924 -3.34863 8
    endloop
  endfacet
  facet normal 0 0 1
    outer loop
      vertex 9.26346 27.5061 8
      vertex 3.58802 31.0602 8
      vertex 3.22828 28.7889 8
    endloop
  endfacet
  facet normal -0 0 1
    outer loop
      vertex 9.26346 27.5061 8
      vertex 3.22828 28.7889 8
      vertex 3.34863 26.4924 8
    endloop
  endfacet
  facet normal 0 0 1
    outer loop
      vertex 9.26346 27.5061 8
      vertex 4.17644 32.5931 8
      vertex 3.58802 31.0602 8
    endloop
  endfacet
  facet normal 0 -0 1
    outer loop
      vertex -27.1858 -14.5588 8
      vertex -49.2596 -48.3754 8
      vertex -10.5355 10.5355 8
    endloop
  endfacet
  facet normal 0 0 1
    outer loop
      vertex -33.163 -14.9203 8
      vertex -38.4826 -18.1553 8
      vertex -37.4386 -20.2042 8
    endloop
  endfacet
  facet normal 0 0 1
    outer loop
      vertex -33.163 -14.9203 8
      vertex -39.0778 -15.934 8
      vertex -38.4826 -18.1553 8
    endloop
  endfacet
  facet normal 0 0 1
    outer loop
      vertex -27.5061 -9.26346 8
      vertex -24.1154 -4.02319 8
      vertex -24.2712 -3.94382 8
    endloop
  endfacet
  facet normal 0 0 1
    outer loop
      vertex -33.163 -14.9203 8
      vertex -38.25 -9.8333 8
      vertex -39.1981 -13.6375 8
    endloop
  endfacet
  facet normal 0 -0 1
    outer loop
      vertex -26.4924 -3.34863 8
      vertex -27.5061 -9.26346 8
      vertex -24.2712 -3.94382 8
    endloop
  endfacet
  facet normal 0 -0 1
    outer loop
      vertex -23.4368 -3.20294 8
      vertex -26.5156 -10.9019 8
      vertex -10.5355 10.5355 8
    endloop
  endfacet
  facet normal 0 0 1
    outer loop
      vertex -26.5156 -10.9019 8
      vertex -26.4 -12.8129 8
      vertex -10.5355 10.5355 8
    endloop
  endfacet
  facet normal 0 -0 1
    outer loop
      vertex -26.4 -12.8129 8
      vertex -27.1858 -14.5588 8
      vertex -10.5355 10.5355 8
    endloop
  endfacet
  facet normal 0 0 1
    outer loop
      vertex -28.6929 -15.7395 8
      vertex -30.576 -16.0846 8
      vertex -49.2596 -48.3754 8
    endloop
  endfacet
  facet normal -0 0 1
    outer loop
      vertex -30.576 -16.0846 8
      vertex -32.4039 -15.515 8
      vertex -49.2596 -48.3754 8
    endloop
  endfacet
  facet normal 0 0 1
    outer loop
      vertex -27.1858 -14.5588 8
      vertex -28.6929 -15.7395 8
      vertex -49.2596 -48.3754 8
    endloop
  endfacet
  facet normal 0 0 1
    outer loop
      vertex -44.6388 -34.0202 8
      vertex -45.9939 -37.148 8
      vertex -49.2596 -48.3754 8
    endloop
  endfacet
  facet normal 0 0 1
    outer loop
      vertex -27.5061 -9.26346 8
      vertex -23.4368 -3.20294 8
      vertex -24.1154 -4.02319 8
    endloop
  endfacet
  facet normal 0 -0 1
    outer loop
      vertex -33.163 -14.9203 8
      vertex -49.2596 -48.3754 8
      vertex -33.0808 -14.8381 8
    endloop
  endfacet
  facet normal 0 0 1
    outer loop
      vertex -27.5061 -9.26346 8
      vertex -26.5156 -10.9019 8
      vertex -23.4368 -3.20294 8
    endloop
  endfacet
  facet normal -0 0 1
    outer loop
      vertex -33.163 -14.9203 8
      vertex -39.1981 -13.6375 8
      vertex -39.0778 -15.934 8
    endloop
  endfacet
  facet normal 0 0 1
    outer loop
      vertex -37.2237 -20.5945 8
      vertex -39.3628 -24.0619 8
      vertex -49.2596 -48.3754 8
    endloop
  endfacet
  facet normal 0 -0 1
    outer loop
      vertex -38.8384 -11.3662 8
      vertex -39.1981 -13.6375 8
      vertex -38.25 -9.8333 8
    endloop
  endfacet
  facet normal 0 0 1
    outer loop
      vertex -45.9939 -37.148 8
      vertex -47.1376 -40.159 8
      vertex -49.2596 -48.3754 8
    endloop
  endfacet
  facet normal 0 -0 1
    outer loop
      vertex -37.2237 -20.5945 8
      vertex -49.2596 -48.3754 8
      vertex -37.1783 -20.5256 8
    endloop
  endfacet
  facet normal 0 0 1
    outer loop
      vertex -41.3167 -27.4642 8
      vertex -43.0777 -30.7881 8
      vertex -49.2596 -48.3754 8
    endloop
  endfacet
  facet normal 0 -0 1
    outer loop
      vertex -44.6388 -34.0202 8
      vertex -49.2596 -48.3754 8
      vertex -43.0777 -30.7881 8
    endloop
  endfacet
  facet normal 0 -0 1
    outer loop
      vertex -48.0654 -43.0414 8
      vertex -49.2596 -48.3754 8
      vertex -47.1376 -40.159 8
    endloop
  endfacet
  facet normal 0 -0 1
    outer loop
      vertex -48.7736 -45.7838 8
      vertex -49.2596 -48.3754 8
      vertex -48.0654 -43.0414 8
    endloop
  endfacet
  facet normal 0 0 1
    outer loop
      vertex 9.26346 27.5061 8
      vertex 4.02319 24.1154 8
      vertex -49.2596 -48.3754 8
    endloop
  endfacet
  facet normal 0 0 1
    outer loop
      vertex -39.3628 -24.0619 8
      vertex -41.3167 -27.4642 8
      vertex -49.2596 -48.3754 8
    endloop
  endfacet
  facet normal 0 0 1
    outer loop
      vertex 3.20294 23.4368 8
      vertex -10.5355 10.5355 8
      vertex -49.2596 -48.3754 8
    endloop
  endfacet
  facet normal 0 0 1
    outer loop
      vertex 9.8333 38.25 8
      vertex 13.6375 39.1981 8
      vertex 11.3662 38.8384 8
    endloop
  endfacet
  facet normal 0 0 1
    outer loop
      vertex 9.8333 38.25 8
      vertex 15.934 39.0778 8
      vertex 13.6375 39.1981 8
    endloop
  endfacet
  facet normal 0 0 1
    outer loop
      vertex 9.8333 38.25 8
      vertex 18.1553 38.4826 8
      vertex 15.934 39.0778 8
    endloop
  endfacet
  facet normal 0 0 1
    outer loop
      vertex 9.8333 38.25 8
      vertex 14.9203 33.163 8
      vertex 18.1553 38.4826 8
    endloop
  endfacet
  facet normal 0.809017 -0.587785 0
    outer loop
      vertex -27.5485 -23.8535 0
      vertex -27.5485 -23.8535 8
      vertex -37.7432 -37.8854 8
    endloop
  endfacet
  facet normal 0.809017 -0.587785 0
    outer loop
      vertex -37.7432 -37.8854 0
      vertex -27.5485 -23.8535 0
      vertex -37.7432 -37.8854 8
    endloop
  endfacet
  facet normal 0.770513 -0.637424 0
    outer loop
      vertex -15.9357 -9.81606 0
      vertex -15.9357 -9.81606 8
      vertex -27.5485 -23.8535 8
    endloop
  endfacet
  facet normal 0.770513 -0.637424 0
    outer loop
      vertex -27.5485 -23.8535 0
      vertex -15.9357 -9.81606 0
      vertex -27.5485 -23.8535 8
    endloop
  endfacet
  facet normal 0.728969 -0.684547 0
    outer loop
      vertex -3.46447 3.46447 0
      vertex -3.46447 3.46447 8
      vertex -15.9357 -9.81606 8
    endloop
  endfacet
  facet normal 0.728969 -0.684547 0
    outer loop
      vertex -15.9357 -9.81606 0
      vertex -3.46447 3.46447 0
      vertex -15.9357 -9.81606 8
    endloop
  endfacet
  facet normal 0.684547 -0.728969 0
    outer loop
      vertex 9.81606 15.9357 0
      vertex 9.81606 15.9357 8
      vertex -3.46447 3.46447 8
    endloop
  endfacet
  facet normal 0.684547 -0.728969 0
    outer loop
      vertex -3.46447 3.46447 0
      vertex 9.81606 15.9357 0
      vertex -3.46447 3.46447 8
    endloop
  endfacet
  facet normal 0.637424 -0.770513 0
    outer loop
      vertex 23.8535 27.5485 0
      vertex 23.8535 27.5485 8
      vertex 9.81606 15.9357 8
    endloop
  endfacet
  facet normal 0.637424 -0.770513 0
    outer loop
      vertex 9.81606 15.9357 0
      vertex 23.8535 27.5485 0
      vertex 9.81606 15.9357 8
    endloop
  endfacet
  facet normal 0.587785 -0.809017 0
    outer loop
      vertex 37.8854 37.7432 0
      vertex 37.8854 37.7432 8
      vertex 23.8535 27.5485 8
    endloop
  endfacet
  facet normal 0.587785 -0.809017 0
    outer loop
      vertex 23.8535 27.5485 0
      vertex 37.8854 37.7432 0
      vertex 23.8535 27.5485 8
    endloop
  endfacet
  facet normal 0.707107 -0.707107 0
    outer loop
      vertex 37.8854 37.7432 8
      vertex 37.8854 37.7432 0
      vertex 49.5255 49.3834 0
    endloop
  endfacet
  facet normal 0.707107 -0.707107 0
    outer loop
      vertex 49.5255 49.3834 8
      vertex 37.8854 37.7432 8
      vertex 49.5255 49.3834 0
    endloop
  endfacet
  facet normal -0.107033 0.994255 0
    outer loop
      vertex 48.3754 49.2596 0
      vertex 48.3754 49.2596 8
      vertex 49.5255 49.3834 0
    endloop
  endfacet
  facet normal -0.107033 0.994255 0
    outer loop
      vertex 49.5255 49.3834 0
      vertex 48.3754 49.2596 8
      vertex 49.5255 49.3834 8
    endloop
  endfacet
  facet normal -0.184287 0.982872 0
    outer loop
      vertex 45.7838 48.7736 0
      vertex 45.7838 48.7736 8
      vertex 48.3754 49.2596 0
    endloop
  endfacet
  facet normal -0.184287 0.982872 0
    outer loop
      vertex 48.3754 49.2596 0
      vertex 45.7838 48.7736 8
      vertex 48.3754 49.2596 8
    endloop
  endfacet
  facet normal -0.25006 0.96823 0
    outer loop
      vertex 43.0414 48.0654 0
      vertex 43.0414 48.0654 8
      vertex 45.7838 48.7736 0
    endloop
  endfacet
  facet normal -0.25006 0.96823 0
    outer loop
      vertex 45.7838 48.7736 0
      vertex 43.0414 48.0654 8
      vertex 45.7838 48.7736 8
    endloop
  endfacet
  facet normal -0.306408 0.9519 0
    outer loop
      vertex 40.159 47.1376 0
      vertex 40.159 47.1376 8
      vertex 43.0414 48.0654 0
    endloop
  endfacet
  facet normal -0.306408 0.9519 0
    outer loop
      vertex 43.0414 48.0654 0
      vertex 40.159 47.1376 8
      vertex 43.0414 48.0654 8
    endloop
  endfacet
  facet normal -0.355087 0.934833 0
    outer loop
      vertex 37.148 45.9939 0
      vertex 37.148 45.9939 8
      vertex 40.159 47.1376 0
    endloop
  endfacet
  facet normal -0.355087 0.934833 0
    outer loop
      vertex 40.159 47.1376 0
      vertex 37.148 45.9939 8
      vertex 40.159 47.1376 8
    endloop
  endfacet
  facet normal -0.397538 0.917586 0
    outer loop
      vertex 34.0202 44.6388 0
      vertex 34.0202 44.6388 8
      vertex 37.148 45.9939 0
    endloop
  endfacet
  facet normal -0.397538 0.917586 0
    outer loop
      vertex 37.148 45.9939 0
      vertex 34.0202 44.6388 8
      vertex 37.148 45.9939 8
    endloop
  endfacet
  facet normal -0.43492 0.900469 0
    outer loop
      vertex 30.7881 43.0777 0
      vertex 30.7881 43.0777 8
      vertex 34.0202 44.6388 0
    endloop
  endfacet
  facet normal -0.43492 0.900469 0
    outer loop
      vertex 34.0202 44.6388 0
      vertex 30.7881 43.0777 8
      vertex 34.0202 44.6388 8
    endloop
  endfacet
  facet normal -0.468161 0.883643 0
    outer loop
      vertex 27.4642 41.3167 0
      vertex 27.4642 41.3167 8
      vertex 30.7881 43.0777 0
    endloop
  endfacet
  facet normal -0.468161 0.883643 0
    outer loop
      vertex 30.7881 43.0777 0
      vertex 27.4642 41.3167 8
      vertex 30.7881 43.0777 8
    endloop
  endfacet
  facet normal -0.498003 0.867175 0
    outer loop
      vertex 24.0619 39.3628 0
      vertex 24.0619 39.3628 8
      vertex 27.4642 41.3167 0
    endloop
  endfacet
  facet normal -0.498003 0.867175 0
    outer loop
      vertex 27.4642 41.3167 0
      vertex 24.0619 39.3628 8
      vertex 27.4642 41.3167 8
    endloop
  endfacet
  facet normal -0.525041 0.851077 0
    outer loop
      vertex 20.5945 37.2237 0
      vertex 20.5945 37.2237 8
      vertex 24.0619 39.3628 0
    endloop
  endfacet
  facet normal -0.525041 0.851077 0
    outer loop
      vertex 24.0619 39.3628 0
      vertex 20.5945 37.2237 8
      vertex 24.0619 39.3628 8
    endloop
  endfacet
  facet normal -0.549756 0.835326 0
    outer loop
      vertex 20.5256 37.1783 0
      vertex 20.5256 37.1783 8
      vertex 20.5945 37.2237 0
    endloop
  endfacet
  facet normal -0.549756 0.835326 0
    outer loop
      vertex 20.5945 37.2237 0
      vertex 20.5256 37.1783 8
      vertex 20.5945 37.2237 8
    endloop
  endfacet
  facet normal 0.629321 0.777146 0
    outer loop
      vertex 20.2042 37.4386 0
      vertex 20.2042 37.4386 8
      vertex 20.5256 37.1783 0
    endloop
  endfacet
  facet normal 0.629321 0.777146 0
    outer loop
      vertex 20.5256 37.1783 0
      vertex 20.2042 37.4386 8
      vertex 20.5256 37.1783 8
    endloop
  endfacet
  facet normal 0.45399 0.891007 0
    outer loop
      vertex 18.1553 38.4826 0
      vertex 18.1553 38.4826 8
      vertex 20.2042 37.4386 0
    endloop
  endfacet
  facet normal 0.45399 0.891007 0
    outer loop
      vertex 20.2042 37.4386 0
      vertex 18.1553 38.4826 8
      vertex 20.2042 37.4386 8
    endloop
  endfacet
  facet normal 0.258819 0.965926 0
    outer loop
      vertex 15.934 39.0778 0
      vertex 15.934 39.0778 8
      vertex 18.1553 38.4826 0
    endloop
  endfacet
  facet normal 0.258819 0.965926 0
    outer loop
      vertex 18.1553 38.4826 0
      vertex 15.934 39.0778 8
      vertex 18.1553 38.4826 8
    endloop
  endfacet
  facet normal 0.052336 0.99863 0
    outer loop
      vertex 13.6375 39.1981 0
      vertex 13.6375 39.1981 8
      vertex 15.934 39.0778 0
    endloop
  endfacet
  facet normal 0.052336 0.99863 0
    outer loop
      vertex 15.934 39.0778 0
      vertex 13.6375 39.1981 8
      vertex 15.934 39.0778 8
    endloop
  endfacet
  facet normal -0.156435 0.987688 0
    outer loop
      vertex 11.3662 38.8384 0
      vertex 11.3662 38.8384 8
      vertex 13.6375 39.1981 0
    endloop
  endfacet
  facet normal -0.156435 0.987688 0
    outer loop
      vertex 13.6375 39.1981 0
      vertex 11.3662 38.8384 8
      vertex 13.6375 39.1981 8
    endloop
  endfacet
  facet normal -0.358368 0.933581 0
    outer loop
      vertex 9.8333 38.25 0
      vertex 9.8333 38.25 8
      vertex 11.3662 38.8384 0
    endloop
  endfacet
  facet normal -0.358368 0.933581 0
    outer loop
      vertex 11.3662 38.8384 0
      vertex 9.8333 38.25 8
      vertex 11.3662 38.8384 8
    endloop
  endfacet
  facet normal -0.707107 -0.707107 0
    outer loop
      vertex 14.9203 33.163 8
      vertex 9.8333 38.25 8
      vertex 9.8333 38.25 0
    endloop
  endfacet
  facet normal -0.707107 -0.707107 -0
    outer loop
      vertex 14.9203 33.163 0
      vertex 14.9203 33.163 8
      vertex 9.8333 38.25 0
    endloop
  endfacet
  facet normal -0.855781 -0.517338 0
    outer loop
      vertex 14.9203 33.163 8
      vertex 14.9203 33.163 0
      vertex 15.9108 31.5245 8
    endloop
  endfacet
  facet normal -0.855781 -0.517338 0
    outer loop
      vertex 15.9108 31.5245 8
      vertex 14.9203 33.163 0
      vertex 15.9108 31.5245 0
    endloop
  endfacet
  facet normal -0.998176 -0.0603783 0
    outer loop
      vertex 15.9108 31.5245 8
      vertex 15.9108 31.5245 0
      vertex 16.0264 29.6135 8
    endloop
  endfacet
  facet normal -0.998176 -0.0603783 0
    outer loop
      vertex 16.0264 29.6135 8
      vertex 15.9108 31.5245 0
      vertex 16.0264 29.6135 0
    endloop
  endfacet
  facet normal -0.9119 0.410413 0
    outer loop
      vertex 16.0264 29.6135 8
      vertex 16.0264 29.6135 0
      vertex 15.2406 27.8676 8
    endloop
  endfacet
  facet normal -0.9119 0.410413 0
    outer loop
      vertex 15.2406 27.8676 8
      vertex 16.0264 29.6135 0
      vertex 15.2406 27.8676 0
    endloop
  endfacet
  facet normal -0.616719 0.787183 0
    outer loop
      vertex 15.2406 27.8676 8
      vertex 15.2406 27.8676 0
      vertex 13.7335 26.6869 8
    endloop
  endfacet
  facet normal -0.616719 0.787183 0
    outer loop
      vertex 13.7335 26.6869 8
      vertex 15.2406 27.8676 0
      vertex 13.7335 26.6869 0
    endloop
  endfacet
  facet normal -0.180255 0.98362 0
    outer loop
      vertex 13.7335 26.6869 8
      vertex 13.7335 26.6869 0
      vertex 11.8504 26.3418 8
    endloop
  endfacet
  facet normal -0.180255 0.98362 0
    outer loop
      vertex 11.8504 26.3418 8
      vertex 13.7335 26.6869 0
      vertex 11.8504 26.3418 0
    endloop
  endfacet
  facet normal 0.297503 0.954721 -0
    outer loop
      vertex 11.8504 26.3418 8
      vertex 11.8504 26.3418 0
      vertex 10.0225 26.9114 8
    endloop
  endfacet
  facet normal 0.297503 0.954721 -0
    outer loop
      vertex 10.0225 26.9114 8
      vertex 11.8504 26.3418 0
      vertex 10.0225 26.9114 0
    endloop
  endfacet
  facet normal 0.707107 0.707107 -0
    outer loop
      vertex 9.34565 27.5883 8
      vertex 10.0225 26.9114 8
      vertex 9.34565 27.5883 0
    endloop
  endfacet
  facet normal 0.707107 0.707107 0
    outer loop
      vertex 9.34565 27.5883 0
      vertex 10.0225 26.9114 8
      vertex 10.0225 26.9114 0
    endloop
  endfacet
  facet normal -0.707107 0.707107 0
    outer loop
      vertex 9.34565 27.5883 8
      vertex 9.34565 27.5883 0
      vertex 9.26346 27.5061 8
    endloop
  endfacet
  facet normal -0.707107 0.707107 0
    outer loop
      vertex 9.26346 27.5061 8
      vertex 9.34565 27.5883 0
      vertex 9.26346 27.5061 0
    endloop
  endfacet
  facet normal 0.707107 0.707107 -0
    outer loop
      vertex 4.17644 32.5931 8
      vertex 9.26346 27.5061 8
      vertex 4.17644 32.5931 0
    endloop
  endfacet
  facet normal 0.707107 0.707107 0
    outer loop
      vertex 4.17644 32.5931 0
      vertex 9.26346 27.5061 8
      vertex 9.26346 27.5061 0
    endloop
  endfacet
  facet normal -0.933581 0.358368 0
    outer loop
      vertex 3.58802 31.0602 0
      vertex 3.58802 31.0602 8
      vertex 4.17644 32.5931 0
    endloop
  endfacet
  facet normal -0.933581 0.358368 0
    outer loop
      vertex 4.17644 32.5931 0
      vertex 3.58802 31.0602 8
      vertex 4.17644 32.5931 8
    endloop
  endfacet
  facet normal -0.987688 0.156435 0
    outer loop
      vertex 3.22828 28.7889 0
      vertex 3.22828 28.7889 8
      vertex 3.58802 31.0602 0
    endloop
  endfacet
  facet normal -0.987688 0.156435 0
    outer loop
      vertex 3.58802 31.0602 0
      vertex 3.22828 28.7889 8
      vertex 3.58802 31.0602 8
    endloop
  endfacet
  facet normal -0.99863 -0.052336 -0
    outer loop
      vertex 3.34863 26.4924 0
      vertex 3.34863 26.4924 8
      vertex 3.22828 28.7889 0
    endloop
  endfacet
  facet normal -0.99863 -0.052336 -0
    outer loop
      vertex 3.22828 28.7889 0
      vertex 3.34863 26.4924 8
      vertex 3.22828 28.7889 8
    endloop
  endfacet
  facet normal -0.965926 -0.258819 -0
    outer loop
      vertex 3.94382 24.2712 0
      vertex 3.94382 24.2712 8
      vertex 3.34863 26.4924 0
    endloop
  endfacet
  facet normal -0.965926 -0.258819 -0
    outer loop
      vertex 3.34863 26.4924 0
      vertex 3.94382 24.2712 8
      vertex 3.34863 26.4924 8
    endloop
  endfacet
  facet normal -0.891007 -0.45399 -0
    outer loop
      vertex 4.02319 24.1154 0
      vertex 4.02319 24.1154 8
      vertex 3.94382 24.2712 0
    endloop
  endfacet
  facet normal -0.891007 -0.45399 -0
    outer loop
      vertex 3.94382 24.2712 0
      vertex 4.02319 24.1154 8
      vertex 3.94382 24.2712 8
    endloop
  endfacet
  facet normal -0.637424 0.770513 0
    outer loop
      vertex 3.20294 23.4368 0
      vertex 3.20294 23.4368 8
      vertex 4.02319 24.1154 0
    endloop
  endfacet
  facet normal -0.637424 0.770513 0
    outer loop
      vertex 4.02319 24.1154 0
      vertex 3.20294 23.4368 8
      vertex 4.02319 24.1154 8
    endloop
  endfacet
  facet normal -0.684547 0.728969 0
    outer loop
      vertex -10.5355 10.5355 0
      vertex -10.5355 10.5355 8
      vertex 3.20294 23.4368 0
    endloop
  endfacet
  facet normal -0.684547 0.728969 0
    outer loop
      vertex 3.20294 23.4368 0
      vertex -10.5355 10.5355 8
      vertex 3.20294 23.4368 8
    endloop
  endfacet
  facet normal -0.728969 0.684547 0
    outer loop
      vertex -23.4368 -3.20294 0
      vertex -23.4368 -3.20294 8
      vertex -10.5355 10.5355 0
    endloop
  endfacet
  facet normal -0.728969 0.684547 0
    outer loop
      vertex -10.5355 10.5355 0
      vertex -23.4368 -3.20294 8
      vertex -10.5355 10.5355 8
    endloop
  endfacet
  facet normal -0.770513 0.637424 0
    outer loop
      vertex -24.1154 -4.02319 0
      vertex -24.1154 -4.02319 8
      vertex -23.4368 -3.20294 0
    endloop
  endfacet
  facet normal -0.770513 0.637424 0
    outer loop
      vertex -23.4368 -3.20294 0
      vertex -24.1154 -4.02319 8
      vertex -23.4368 -3.20294 8
    endloop
  endfacet
  facet normal 0.45399 0.891007 0
    outer loop
      vertex -24.2712 -3.94382 0
      vertex -24.2712 -3.94382 8
      vertex -24.1154 -4.02319 0
    endloop
  endfacet
  facet normal 0.45399 0.891007 0
    outer loop
      vertex -24.1154 -4.02319 0
      vertex -24.2712 -3.94382 8
      vertex -24.1154 -4.02319 8
    endloop
  endfacet
  facet normal 0.258819 0.965926 0
    outer loop
      vertex -26.4924 -3.34863 0
      vertex -26.4924 -3.34863 8
      vertex -24.2712 -3.94382 0
    endloop
  endfacet
  facet normal 0.258819 0.965926 0
    outer loop
      vertex -24.2712 -3.94382 0
      vertex -26.4924 -3.34863 8
      vertex -24.2712 -3.94382 8
    endloop
  endfacet
  facet normal 0.052336 0.99863 0
    outer loop
      vertex -28.7889 -3.22828 0
      vertex -28.7889 -3.22828 8
      vertex -26.4924 -3.34863 0
    endloop
  endfacet
  facet normal 0.052336 0.99863 0
    outer loop
      vertex -26.4924 -3.34863 0
      vertex -28.7889 -3.22828 8
      vertex -26.4924 -3.34863 8
    endloop
  endfacet
  facet normal -0.156435 0.987688 0
    outer loop
      vertex -31.0602 -3.58802 0
      vertex -31.0602 -3.58802 8
      vertex -28.7889 -3.22828 0
    endloop
  endfacet
  facet normal -0.156435 0.987688 0
    outer loop
      vertex -28.7889 -3.22828 0
      vertex -31.0602 -3.58802 8
      vertex -28.7889 -3.22828 8
    endloop
  endfacet
  facet normal -0.358368 0.933581 0
    outer loop
      vertex -32.5931 -4.17644 0
      vertex -32.5931 -4.17644 8
      vertex -31.0602 -3.58802 0
    endloop
  endfacet
  facet normal -0.358368 0.933581 0
    outer loop
      vertex -31.0602 -3.58802 0
      vertex -32.5931 -4.17644 8
      vertex -31.0602 -3.58802 8
    endloop
  endfacet
  facet normal -0.707107 -0.707107 0
    outer loop
      vertex -27.5061 -9.26346 8
      vertex -32.5931 -4.17644 8
      vertex -32.5931 -4.17644 0
    endloop
  endfacet
  facet normal -0.707107 -0.707107 -0
    outer loop
      vertex -27.5061 -9.26346 0
      vertex -27.5061 -9.26346 8
      vertex -32.5931 -4.17644 0
    endloop
  endfacet
  facet normal -0.855781 -0.517338 0
    outer loop
      vertex -27.5061 -9.26346 8
      vertex -27.5061 -9.26346 0
      vertex -26.5156 -10.9019 8
    endloop
  endfacet
  facet normal -0.855781 -0.517338 0
    outer loop
      vertex -26.5156 -10.9019 8
      vertex -27.5061 -9.26346 0
      vertex -26.5156 -10.9019 0
    endloop
  endfacet
  facet normal -0.998176 -0.0603783 0
    outer loop
      vertex -26.5156 -10.9019 8
      vertex -26.5156 -10.9019 0
      vertex -26.4 -12.8129 8
    endloop
  endfacet
  facet normal -0.998176 -0.0603783 0
    outer loop
      vertex -26.4 -12.8129 8
      vertex -26.5156 -10.9019 0
      vertex -26.4 -12.8129 0
    endloop
  endfacet
  facet normal -0.9119 0.410413 0
    outer loop
      vertex -26.4 -12.8129 8
      vertex -26.4 -12.8129 0
      vertex -27.1858 -14.5588 8
    endloop
  endfacet
  facet normal -0.9119 0.410413 0
    outer loop
      vertex -27.1858 -14.5588 8
      vertex -26.4 -12.8129 0
      vertex -27.1858 -14.5588 0
    endloop
  endfacet
  facet normal -0.616719 0.787183 0
    outer loop
      vertex -27.1858 -14.5588 8
      vertex -27.1858 -14.5588 0
      vertex -28.6929 -15.7395 8
    endloop
  endfacet
  facet normal -0.616719 0.787183 0
    outer loop
      vertex -28.6929 -15.7395 8
      vertex -27.1858 -14.5588 0
      vertex -28.6929 -15.7395 0
    endloop
  endfacet
  facet normal -0.180255 0.98362 0
    outer loop
      vertex -28.6929 -15.7395 8
      vertex -28.6929 -15.7395 0
      vertex -30.576 -16.0846 8
    endloop
  endfacet
  facet normal -0.180255 0.98362 0
    outer loop
      vertex -30.576 -16.0846 8
      vertex -28.6929 -15.7395 0
      vertex -30.576 -16.0846 0
    endloop
  endfacet
  facet normal 0.297503 0.954721 -0
    outer loop
      vertex -30.576 -16.0846 8
      vertex -30.576 -16.0846 0
      vertex -32.4039 -15.515 8
    endloop
  endfacet
  facet normal 0.297503 0.954721 -0
    outer loop
      vertex -32.4039 -15.515 8
      vertex -30.576 -16.0846 0
      vertex -32.4039 -15.515 0
    endloop
  endfacet
  facet normal 0.707107 0.707107 -0
    outer loop
      vertex -33.0808 -14.8381 8
      vertex -32.4039 -15.515 8
      vertex -33.0808 -14.8381 0
    endloop
  endfacet
  facet normal 0.707107 0.707107 0
    outer loop
      vertex -33.0808 -14.8381 0
      vertex -32.4039 -15.515 8
      vertex -32.4039 -15.515 0
    endloop
  endfacet
  facet normal -0.707107 0.707107 0
    outer loop
      vertex -33.0808 -14.8381 8
      vertex -33.0808 -14.8381 0
      vertex -33.163 -14.9203 8
    endloop
  endfacet
  facet normal -0.707107 0.707107 0
    outer loop
      vertex -33.163 -14.9203 8
      vertex -33.0808 -14.8381 0
      vertex -33.163 -14.9203 0
    endloop
  endfacet
  facet normal 0.707107 0.707107 -0
    outer loop
      vertex -38.25 -9.8333 8
      vertex -33.163 -14.9203 8
      vertex -38.25 -9.8333 0
    endloop
  endfacet
  facet normal 0.707107 0.707107 0
    outer loop
      vertex -38.25 -9.8333 0
      vertex -33.163 -14.9203 8
      vertex -33.163 -14.9203 0
    endloop
  endfacet
  facet normal -0.933581 0.358368 0
    outer loop
      vertex -38.8384 -11.3662 0
      vertex -38.8384 -11.3662 8
      vertex -38.25 -9.8333 0
    endloop
  endfacet
  facet normal -0.933581 0.358368 0
    outer loop
      vertex -38.25 -9.8333 0
      vertex -38.8384 -11.3662 8
      vertex -38.25 -9.8333 8
    endloop
  endfacet
  facet normal -0.987688 0.156435 0
    outer loop
      vertex -39.1981 -13.6375 0
      vertex -39.1981 -13.6375 8
      vertex -38.8384 -11.3662 0
    endloop
  endfacet
  facet normal -0.987688 0.156435 0
    outer loop
      vertex -38.8384 -11.3662 0
      vertex -39.1981 -13.6375 8
      vertex -38.8384 -11.3662 8
    endloop
  endfacet
  facet normal -0.99863 -0.052336 -0
    outer loop
      vertex -39.0778 -15.934 0
      vertex -39.0778 -15.934 8
      vertex -39.1981 -13.6375 0
    endloop
  endfacet
  facet normal -0.99863 -0.052336 -0
    outer loop
      vertex -39.1981 -13.6375 0
      vertex -39.0778 -15.934 8
      vertex -39.1981 -13.6375 8
    endloop
  endfacet
  facet normal -0.965926 -0.258819 -0
    outer loop
      vertex -38.4826 -18.1553 0
      vertex -38.4826 -18.1553 8
      vertex -39.0778 -15.934 0
    endloop
  endfacet
  facet normal -0.965926 -0.258819 -0
    outer loop
      vertex -39.0778 -15.934 0
      vertex -38.4826 -18.1553 8
      vertex -39.0778 -15.934 8
    endloop
  endfacet
  facet normal -0.891007 -0.45399 -0
    outer loop
      vertex -37.4386 -20.2042 0
      vertex -37.4386 -20.2042 8
      vertex -38.4826 -18.1553 0
    endloop
  endfacet
  facet normal -0.891007 -0.45399 -0
    outer loop
      vertex -38.4826 -18.1553 0
      vertex -37.4386 -20.2042 8
      vertex -38.4826 -18.1553 8
    endloop
  endfacet
  facet normal -0.777146 -0.629321 -0
    outer loop
      vertex -37.1783 -20.5256 0
      vertex -37.1783 -20.5256 8
      vertex -37.4386 -20.2042 0
    endloop
  endfacet
  facet normal -0.777146 -0.629321 -0
    outer loop
      vertex -37.4386 -20.2042 0
      vertex -37.1783 -20.5256 8
      vertex -37.4386 -20.2042 8
    endloop
  endfacet
  facet normal -0.835326 0.549756 0
    outer loop
      vertex -37.2237 -20.5945 0
      vertex -37.2237 -20.5945 8
      vertex -37.1783 -20.5256 0
    endloop
  endfacet
  facet normal -0.835326 0.549756 0
    outer loop
      vertex -37.1783 -20.5256 0
      vertex -37.2237 -20.5945 8
      vertex -37.1783 -20.5256 8
    endloop
  endfacet
  facet normal -0.851077 0.525041 0
    outer loop
      vertex -39.3628 -24.0619 0
      vertex -39.3628 -24.0619 8
      vertex -37.2237 -20.5945 0
    endloop
  endfacet
  facet normal -0.851077 0.525041 0
    outer loop
      vertex -37.2237 -20.5945 0
      vertex -39.3628 -24.0619 8
      vertex -37.2237 -20.5945 8
    endloop
  endfacet
  facet normal -0.867175 0.498003 0
    outer loop
      vertex -41.3167 -27.4642 0
      vertex -41.3167 -27.4642 8
      vertex -39.3628 -24.0619 0
    endloop
  endfacet
  facet normal -0.867175 0.498003 0
    outer loop
      vertex -39.3628 -24.0619 0
      vertex -41.3167 -27.4642 8
      vertex -39.3628 -24.0619 8
    endloop
  endfacet
  facet normal -0.883643 0.468161 0
    outer loop
      vertex -43.0777 -30.7881 0
      vertex -43.0777 -30.7881 8
      vertex -41.3167 -27.4642 0
    endloop
  endfacet
  facet normal -0.883643 0.468161 0
    outer loop
      vertex -41.3167 -27.4642 0
      vertex -43.0777 -30.7881 8
      vertex -41.3167 -27.4642 8
    endloop
  endfacet
  facet normal -0.900469 0.43492 0
    outer loop
      vertex -44.6388 -34.0202 0
      vertex -44.6388 -34.0202 8
      vertex -43.0777 -30.7881 0
    endloop
  endfacet
  facet normal -0.900469 0.43492 0
    outer loop
      vertex -43.0777 -30.7881 0
      vertex -44.6388 -34.0202 8
      vertex -43.0777 -30.7881 8
    endloop
  endfacet
  facet normal -0.917586 0.397538 0
    outer loop
      vertex -45.9939 -37.148 0
      vertex -45.9939 -37.148 8
      vertex -44.6388 -34.0202 0
    endloop
  endfacet
  facet normal -0.917586 0.397538 0
    outer loop
      vertex -44.6388 -34.0202 0
      vertex -45.9939 -37.148 8
      vertex -44.6388 -34.0202 8
    endloop
  endfacet
  facet normal -0.934833 0.355087 0
    outer loop
      vertex -47.1376 -40.159 0
      vertex -47.1376 -40.159 8
      vertex -45.9939 -37.148 0
    endloop
  endfacet
  facet normal -0.934833 0.355087 0
    outer loop
      vertex -45.9939 -37.148 0
      vertex -47.1376 -40.159 8
      vertex -45.9939 -37.148 8
    endloop
  endfacet
  facet normal -0.9519 0.306408 0
    outer loop
      vertex -48.0654 -43.0414 0
      vertex -48.0654 -43.0414 8
      vertex -47.1376 -40.159 0
    endloop
  endfacet
  facet normal -0.9519 0.306408 0
    outer loop
      vertex -47.1376 -40.159 0
      vertex -48.0654 -43.0414 8
      vertex -47.1376 -40.159 8
    endloop
  endfacet
  facet normal -0.96823 0.25006 0
    outer loop
      vertex -48.7736 -45.7838 0
      vertex -48.7736 -45.7838 8
      vertex -48.0654 -43.0414 0
    endloop
  endfacet
  facet normal -0.96823 0.25006 0
    outer loop
      vertex -48.0654 -43.0414 0
      vertex -48.7736 -45.7838 8
      vertex -48.0654 -43.0414 8
    endloop
  endfacet
endsolid OpenSCAD_Model
